<svg width="361" height="482" viewBox="0 0 361 482" fill="none" xmlns="http://www.w3.org/2000/svg">
<g clip-path="url(#clip0_586_3420)" filter="url(#filter0_d_586_3420)">
<rect width="322" height="443" transform="translate(19.1016 15.0996)" fill="#9361F4"/>
<path d="M60.2029 124.1L72.1169 92.3596H80.5349L92.4949 124.1H84.6749L82.7429 118.534H69.8169L67.8389 124.1H60.2029ZM72.1169 111.956H80.3969L76.2569 100.226L72.1169 111.956ZM103.325 124.1C97.759 124.1 94.861 121.478 94.861 116.464V106.758H91.365V100.64H93.297C94.585 100.64 95.229 99.9956 95.229 98.7076V94.4756H101.577V100.64H106.683V106.758H101.577V115.36C101.577 117.016 102.589 117.982 104.337 117.982H106.683V124.1H103.325ZM114.389 97.7416C112.043 97.7416 110.249 95.9936 110.249 93.6016C110.249 91.2556 112.043 89.5076 114.389 89.5076C116.781 89.5076 118.575 91.2556 118.575 93.6016C118.575 95.9936 116.781 97.7416 114.389 97.7416ZM111.031 124.1V100.64H117.747V124.1H111.031ZM130.15 124.1L120.582 100.64H128.264L133.692 115.636L135.992 109.472C137.234 105.884 137.832 103.032 137.326 100.64H144.226C144.732 103.308 144.18 106.712 142.478 110.852L137.05 124.1H130.15ZM151.315 97.7416C148.969 97.7416 147.175 95.9936 147.175 93.6016C147.175 91.2556 148.969 89.5076 151.315 89.5076C153.707 89.5076 155.501 91.2556 155.501 93.6016C155.501 95.9936 153.707 97.7416 151.315 97.7416ZM147.957 124.1V100.64H154.673V124.1H147.957ZM170.112 124.652C163.672 124.652 158.796 119.362 158.796 112.37C158.796 105.378 163.672 100.088 170.112 100.088C172.964 100.088 175.402 101.146 177.196 102.986V90.9796H183.912V115.728C183.912 116.924 184.602 117.614 185.798 117.614H186.258V124.1H184.372C181.152 124.1 179.036 123.042 177.978 120.926C176.092 123.226 173.378 124.652 170.112 124.652ZM171.446 118.166C174.758 118.166 177.196 115.682 177.196 112.37C177.196 109.058 174.758 106.574 171.446 106.574C168.18 106.574 165.742 109.058 165.742 112.37C165.742 115.682 168.18 118.166 171.446 118.166ZM199.895 124.652C193.455 124.652 188.579 119.362 188.579 112.37C188.579 105.378 193.455 100.088 199.895 100.088C202.747 100.088 205.185 101.146 206.979 102.986V100.64H213.695V115.728C213.695 116.924 214.385 117.614 215.581 117.614H216.041V124.1H214.155C210.935 124.1 208.819 123.042 207.761 120.926C205.875 123.226 203.161 124.652 199.895 124.652ZM201.229 118.166C204.541 118.166 206.979 115.682 206.979 112.37C206.979 109.058 204.541 106.574 201.229 106.574C197.963 106.574 195.525 109.058 195.525 112.37C195.525 115.682 197.963 118.166 201.229 118.166ZM229.589 124.652C223.149 124.652 218.273 119.362 218.273 112.37C218.273 105.378 223.149 100.088 229.589 100.088C232.441 100.088 234.879 101.146 236.673 102.986V90.9796H243.389V115.728C243.389 116.924 244.079 117.614 245.275 117.614H245.735V124.1H243.849C240.629 124.1 238.513 123.042 237.455 120.926C235.569 123.226 232.855 124.652 229.589 124.652ZM230.923 118.166C234.235 118.166 236.673 115.682 236.673 112.37C236.673 109.058 234.235 106.574 230.923 106.574C227.657 106.574 225.219 109.058 225.219 112.37C225.219 115.682 227.657 118.166 230.923 118.166ZM260.66 124.652C253.392 124.652 247.964 119.362 247.964 112.37C247.964 105.378 253.392 100.088 260.614 100.088C267.79 100.088 273.264 105.332 273.264 112.462C273.264 113.06 273.218 113.98 273.08 114.532H255.14C255.876 117.2 257.992 118.902 260.798 118.902C263.006 118.902 264.846 117.936 265.72 116.694H272.896C271.148 121.432 266.456 124.652 260.66 124.652ZM260.614 105.838C257.946 105.838 255.922 107.494 255.186 110.07H266.088C265.352 107.494 263.282 105.838 260.614 105.838ZM289.346 124.652C285.85 124.652 282.768 123.318 280.698 121.248L279.502 124.1H272.602L282.4 100.64H290.082C290.772 106.666 299.098 106.436 299.098 114.992C299.098 120.696 295.464 124.652 289.346 124.652ZM292.198 114.854C292.198 112.002 288.196 110.99 286.126 107.724L282.906 115.682C284.01 117.2 285.896 118.166 288.058 118.166C290.496 118.166 292.198 116.878 292.198 114.854ZM103.379 170.1V138.36H123.757V145.076H110.509V151.102H121.963V157.818H110.509V170.1H103.379ZM127.213 144.248L131.813 137.44H140.231L134.251 144.248H127.213ZM127.673 170.1V146.64H134.389V170.1H127.673ZM152.671 170.652C149.175 170.652 146.093 169.318 144.023 167.248L142.827 170.1H135.927L145.725 146.64H153.407C154.097 152.666 162.423 152.436 162.423 160.992C162.423 166.696 158.789 170.652 152.671 170.652ZM155.523 160.854C155.523 158.002 151.521 156.99 149.451 153.724L146.231 161.682C147.335 163.2 149.221 164.166 151.383 164.166C153.821 164.166 155.523 162.878 155.523 160.854ZM169.351 143.742C167.005 143.742 165.211 141.994 165.211 139.602C165.211 137.256 167.005 135.508 169.351 135.508C171.743 135.508 173.537 137.256 173.537 139.602C173.537 141.994 171.743 143.742 169.351 143.742ZM165.993 170.1V146.64H172.709V170.1H165.993ZM189.39 170.652C182.168 170.652 176.74 165.362 176.74 158.37C176.74 151.378 182.168 146.088 189.39 146.088C195.692 146.088 200.706 150.182 201.488 155.886H194.358C193.714 153.908 191.736 152.574 189.39 152.574C186.078 152.574 183.64 155.058 183.64 158.37C183.64 161.682 186.078 164.166 189.39 164.166C191.736 164.166 193.714 162.832 194.358 160.854H201.488C200.706 166.558 195.692 170.652 189.39 170.652ZM215.416 170.652C208.976 170.652 204.1 165.362 204.1 158.37C204.1 151.378 208.976 146.088 215.416 146.088C218.268 146.088 220.706 147.146 222.5 148.986V146.64H229.216V161.728C229.216 162.924 229.906 163.614 231.102 163.614H231.562V170.1H229.676C226.456 170.1 224.34 169.042 223.282 166.926C221.396 169.226 218.682 170.652 215.416 170.652ZM216.75 164.166C220.062 164.166 222.5 161.682 222.5 158.37C222.5 155.058 220.062 152.574 216.75 152.574C213.484 152.574 211.046 155.058 211.046 158.37C211.046 161.682 213.484 164.166 216.75 164.166ZM249.298 170.652C245.802 170.652 242.72 169.318 240.65 167.248L239.454 170.1H232.554L242.352 146.64H250.034C250.724 152.666 259.05 152.436 259.05 160.992C259.05 166.696 255.416 170.652 249.298 170.652ZM252.15 160.854C252.15 158.002 248.148 156.99 246.078 153.724L242.858 161.682C243.962 163.2 245.848 164.166 248.01 164.166C250.448 164.166 252.15 162.878 252.15 160.854Z" fill="white"/>
<path d="M314.311 350.618L296.616 305.134C294.605 299.959 289.715 296.616 284.166 296.616C282.407 296.616 280.685 296.96 279.046 297.64L228.764 318.535C228.058 318.828 227.403 319.215 226.818 319.676C224.573 312.775 222.257 306.447 220.147 301.44C215.912 291.408 213.549 289.082 212.141 288.208C211.296 287.681 210.367 287.418 209.38 287.418C206.417 287.418 201.915 289.433 193.309 305.134C188.576 313.77 184.016 323.937 180.896 331.27L133.584 316.059C132.684 315.77 131.759 315.624 130.833 315.624C123.932 315.624 118.263 323.692 117.934 333.999L117.575 346.865C117.553 347.783 117.842 348.691 118.391 349.426C119.609 351.039 120.278 353.207 120.278 355.526C120.278 358.032 119.477 360.402 118.076 362.018C117.465 362.728 117.111 363.635 117.081 364.582L116.54 383.988C116.511 385.1 116.946 386.197 117.743 387.002C119.331 388.593 120.278 391.153 120.278 393.856C120.278 396.778 119.206 399.459 117.414 401.021C116.54 401.778 116.021 402.864 115.984 404.02L115.505 421.367C115.469 422.702 116.068 423.971 117.114 424.768C119.067 426.26 120.282 429.102 120.282 432.182C120.282 435.452 118.899 438.462 116.752 439.848C115.629 440.579 114.935 441.819 114.898 443.165L114.459 459.02C114.415 460.538 115.205 461.946 116.518 462.696C118.771 463.987 120.282 467.125 120.282 470.508C120.282 474.377 118.336 477.823 115.655 478.708L113.841 479.308V481.18L113.804 482.442C113.596 488.868 115.523 494.822 118.958 498.366C121.013 500.491 123.467 501.614 126.053 501.614C126.163 501.614 126.276 501.614 126.386 501.607L126.006 502.854C125.369 504.95 125.735 507.151 127.044 509.053C129.217 512.21 133.726 514.32 139.106 514.697C139.201 514.704 139.297 514.708 139.388 514.708C141.133 514.708 142.694 513.61 143.268 511.975C144.194 509.346 147.628 507.44 151.435 507.44C155.243 507.44 158.703 509.36 159.613 512.001C160.177 513.651 161.735 514.759 163.487 514.759H177.71C179.462 514.759 181.02 513.651 181.583 512.008C182.494 509.364 185.932 507.444 189.758 507.444C193.583 507.444 197.029 509.364 197.936 512.005C198.499 513.654 200.057 514.759 201.809 514.759H216.033C217.784 514.759 219.343 513.651 219.906 512.008C220.816 509.364 224.258 507.444 228.084 507.444C231.909 507.444 235.347 509.364 236.262 512.016C236.832 513.658 238.387 514.762 240.135 514.762C246.459 514.762 252.109 511.39 256.052 505.268C259.556 499.826 261.487 492.642 261.487 485.042C261.487 475.621 258.543 466.876 253.195 460.41C246.843 452.733 237.447 448.673 226.021 448.673H216.797L212.372 440.967C212.745 438.798 212.353 436.53 211.241 434.596C210.133 432.665 208.374 431.183 206.315 430.412L204.435 427.138L204.523 423.869C207.566 423.36 210.243 421.385 211.589 418.551C212.902 415.786 212.825 412.655 211.38 409.956C210.045 407.458 207.749 405.731 205.013 405.139L205.28 395.004L247.545 421.502L247.903 421.605C248.039 421.645 249.256 421.981 250.906 421.981C253.945 421.981 256.549 420.888 258.433 418.821C261.095 415.903 262.145 411.188 261.556 404.813C260.254 390.751 246.48 387.58 238.632 386.925C239.275 384.837 239.689 381.633 239.425 376.48C240.117 376.662 240.837 376.757 241.572 376.757C241.938 376.757 242.311 376.732 242.677 376.684L303.595 368.711C307.691 368.174 311.246 365.829 313.353 362.274C315.459 358.719 315.807 354.473 314.307 350.625L314.311 350.618Z" fill="#FFE885"/>
<path d="M106.018 445.572C113.428 442.156 119.013 436.333 121.342 429.589C123.434 423.539 122.751 416.77 119.422 410.534C115.856 403.852 109.635 398.782 102.781 396.972C101.296 396.581 99.7564 396.314 98.191 396.182L88.8134 376.743C92.1453 375.58 94.9762 373.034 96.8012 369.479C99.3321 364.553 99.4053 358.701 96.9914 354.21C93.7144 348.113 86.8055 344.327 78.964 344.327C77.0914 344.327 75.2591 344.55 73.4962 344.993L62.6995 322.613L60.304 327.463C56.2735 335.626 55.7651 345.476 58.852 354.722C56.6758 357.329 54.8178 360.299 53.3183 363.573C46.2814 378.897 48.8087 397.586 59.4591 409.023C61.5036 411.218 63.8699 413.127 66.5179 414.721C64.5539 418.668 63.2884 423.042 62.7727 427.654L32.515 399.616L31.33 399.737C28.1992 400.055 25.3647 401.774 23.3458 404.572C20.8954 407.97 19.9371 412.593 20.8442 416.634C22.4608 423.836 28.3272 428.938 32.6027 432.149C42.0754 439.263 53.2195 444.46 64.9306 447.232C65.3951 448.626 65.9217 449.993 66.5032 451.31C71.3676 462.348 80.4343 472.227 92.7196 479.878C103.842 486.805 116.237 491.209 127.977 494.936L130.57 490.485L86.4032 449.555C94.124 449.397 100.554 448.092 106.018 445.572Z" fill="#FFE885"/>
<path d="M323.256 336.204L305.558 290.72C304.157 287.122 301.432 284.309 297.881 282.795C294.333 281.284 290.413 281.262 286.85 282.744L236.568 303.638C236.166 303.807 235.785 304.008 235.42 304.22C231.627 292.688 225.556 276.369 220.735 273.377C219.159 272.397 217.334 272.192 215.461 272.784C213.036 273.553 205.729 275.868 188.546 316.106L141.988 301.137C138.934 300.16 135.719 300.701 132.928 302.669C128.404 305.858 125.445 312.445 125.207 319.881L124.849 332.751C124.823 333.863 125.171 334.96 125.84 335.853C126.945 337.319 127.552 339.298 127.552 341.434C127.552 343.735 126.828 345.896 125.559 347.363C124.82 348.219 124.395 349.312 124.355 350.464L123.814 369.874C123.777 371.22 124.304 372.544 125.27 373.52C126.696 374.954 127.552 377.284 127.552 379.764C127.552 382.397 126.564 384.895 124.988 386.274C123.931 387.188 123.302 388.509 123.258 389.902L122.779 407.245C122.735 408.858 123.463 410.398 124.725 411.36C126.469 412.695 127.552 415.27 127.552 418.086C127.552 421.07 126.323 423.792 124.417 425.028C123.053 425.913 122.216 427.42 122.172 429.044L121.729 444.895C121.674 446.731 122.633 448.439 124.224 449.346C126.217 450.487 127.552 453.325 127.552 456.405C127.552 460.377 125.522 463.123 123.518 463.785L121.181 464.557L121.078 468.313C120.862 474.966 122.881 481.158 126.473 484.87C128.477 486.94 130.847 488.133 133.363 488.345L133.316 488.502C132.599 490.857 133.009 493.323 134.468 495.444C136.79 498.816 141.541 501.065 147.185 501.46C149.416 501.599 151.482 500.253 152.221 498.161C152.916 496.194 155.663 494.204 159.569 494.204C163.475 494.204 166.247 496.208 166.927 498.18C167.611 500.176 169.499 501.519 171.62 501.519H185.844C187.965 501.519 189.852 500.176 190.536 498.183C191.22 496.205 193.963 494.2 197.895 494.2C201.826 494.2 204.577 496.205 205.257 498.176C205.941 500.173 207.828 501.515 209.95 501.515H224.173C226.295 501.515 228.182 500.173 228.866 498.18C229.55 496.201 232.296 494.197 236.224 494.197C240.152 494.197 242.899 496.201 243.587 498.187C244.278 500.176 246.162 501.511 248.276 501.511C262.704 501.511 270.491 485.752 270.491 470.925C270.491 461.302 267.477 452.36 261.998 445.74C255.477 437.854 245.851 433.688 234.158 433.688H217.107C218.537 432.675 219.733 431.322 220.508 429.687C221.939 426.674 221.858 423.258 220.282 420.313C218.833 417.607 216.343 415.742 213.384 415.087L213.508 410.431C216.529 409.707 219.148 407.666 220.508 404.799C221.939 401.785 221.858 398.365 220.282 395.425C218.939 392.919 216.708 391.131 214.035 390.359L214.243 382.419L255.327 408.178L255.802 408.313C256.077 408.394 257.35 408.73 259.065 408.73C261.109 408.73 263.787 408.251 266.16 406.287C269.766 403.303 271.248 398.029 270.56 390.612C269.357 377.591 257.543 372.99 247.877 371.977C248.334 369.995 248.597 367.252 248.469 363.386C248.886 363.444 249.307 363.496 249.728 363.496C250.126 363.496 250.528 363.47 250.931 363.415L311.849 355.442C316.208 354.871 319.997 352.373 322.239 348.588C324.481 344.802 324.851 340.282 323.256 336.182V336.204ZM280.34 351.843C280.245 351.894 280.055 351.978 279.722 352.059L272.711 352.904L272.382 352.959C271.211 353.211 270.736 353.112 270.67 353.112C270.666 353.112 270.663 353.112 270.663 353.112C270.608 353.039 270.461 352.75 270.363 352.147C268.249 339.258 260.297 314.238 256.903 303.869L266.639 299.527L280.099 350.128C280.369 351.144 280.358 351.649 280.336 351.839L280.34 351.843ZM194.267 320.55C206.972 290.486 214.66 280.765 217.283 279.565C219.422 281.811 224.755 293.116 230.859 313.023C230.936 313.872 231.126 314.728 231.448 315.565C231.748 316.348 232.026 317.105 232.304 317.869C235.983 330.506 238.817 342.751 240.299 352.41L240.31 352.479C240.357 353.226 240.397 353.928 240.419 354.546C240.452 355.526 240.643 356.484 240.972 357.388C242.201 368.133 240.917 371.209 240.525 371.86L213.409 372.621C213.179 372.628 212.956 372.654 212.736 372.694H212.323C209.609 372.694 207.43 374.819 207.356 377.533L207.046 389.236C203.959 388.786 200.682 388.311 197.496 387.854C197.394 387.839 197.291 387.825 197.185 387.81C196.516 387.715 195.854 387.62 195.199 387.525C194.863 387.477 194.53 387.43 194.201 387.382C193.674 387.305 193.158 387.232 192.646 387.159C192.387 387.122 192.127 387.086 191.871 387.049C191.077 386.936 190.298 386.826 189.549 386.72C186.147 386.237 182.727 387.473 180.412 390.012C178.675 391.917 177.728 394.371 177.699 396.891C177.695 397.312 177.713 397.732 177.761 398.153C177.808 398.574 177.878 398.994 177.976 399.415L178.551 401.851C179.622 406.382 183.616 409.674 188.268 409.853L206.486 410.57L206.395 414.023C204.303 413.719 202.134 413.404 199.972 413.09C199.263 412.988 198.56 412.885 197.858 412.786C197.818 412.779 197.781 412.775 197.741 412.768C196.304 412.56 194.892 412.358 193.517 412.161C193.51 412.161 193.502 412.161 193.495 412.161C192.815 412.062 192.145 411.967 191.491 411.876C190.825 411.781 190.178 411.689 189.549 411.601C186.143 411.126 182.727 412.355 180.412 414.897C178.097 417.439 177.186 420.953 177.976 424.296L178.551 426.736C178.818 427.87 179.268 428.923 179.867 429.87C179.893 429.907 179.922 429.94 179.948 429.98L165.56 428.265L164.729 435.225L190.035 438.242L172.223 442.218L173.749 449.061L211.208 440.7H214.942C209.481 447.261 202.141 459.162 199.705 477.588L149.807 475.474L145.316 464.118L152.547 311.889L188.162 323.341C190.624 324.127 193.246 322.931 194.259 320.543L194.267 320.55ZM256.592 450.213C261.029 455.578 263.476 462.933 263.476 470.928C263.476 481.977 258.304 493.392 249.57 494.427C247.299 490.097 242.051 487.189 236.221 487.189C230.391 487.189 225.073 490.075 222.824 494.504H211.292C209.046 490.075 203.86 487.189 197.891 487.189C191.922 487.189 186.754 490.13 184.505 494.504H172.966C170.72 490.075 165.534 487.189 159.569 487.189C153.604 487.189 148.578 489.991 146.278 494.306C143.154 493.827 140.996 492.562 140.239 491.465C139.888 490.956 139.969 490.696 140.016 490.539L140.912 487.602C141.443 485.88 140.996 483.996 139.757 482.687C138.513 481.377 136.655 480.84 134.892 481.275C133.506 481.626 132.237 480.748 131.502 479.988C129.812 478.243 128.068 474.56 128.064 469.323C131.981 466.865 134.556 461.905 134.556 456.401C134.556 451.295 132.317 446.555 128.762 443.947L129.143 430.24C132.508 427.573 134.556 423.023 134.556 418.075C134.556 413.459 132.8 409.209 129.805 406.474L130.236 390.933C132.954 388.19 134.556 384.083 134.556 379.749C134.556 375.722 133.206 371.933 130.84 369.212L131.337 351.346C133.418 348.654 134.556 345.161 134.556 341.419C134.556 338.044 133.605 334.81 131.871 332.236L132.211 320.078C132.402 314.183 134.735 309.958 136.962 308.386C138.433 307.351 139.493 307.691 139.837 307.801L145.641 309.666L138.25 465.292L144.972 482.284L206 484.87L206.318 481.56C208.732 456.324 221.32 443.651 224.667 440.696H234.154C243.824 440.696 251.373 443.896 256.592 450.205V450.213ZM214.097 423.627C214.609 424.589 214.638 425.704 214.17 426.688C213.611 427.866 212.407 428.623 211.105 428.623L188.546 427.738C187.029 427.679 185.727 426.604 185.375 425.126L184.801 422.687C184.538 421.579 184.827 420.46 185.595 419.618C185.774 419.421 185.975 419.256 186.184 419.11C186.253 419.062 186.326 419.03 186.399 418.986C186.546 418.898 186.699 418.817 186.857 418.755C186.944 418.719 187.04 418.693 187.131 418.667C187.281 418.624 187.435 418.587 187.592 418.561C187.691 418.547 187.789 418.536 187.892 418.532C188.118 418.518 188.345 418.514 188.576 418.547C194.786 419.421 202.803 420.584 209.288 421.531L211.599 421.868C212.674 422.025 213.585 422.665 214.097 423.623V423.627ZM214.17 401.8C213.614 402.974 212.415 403.734 210.974 403.734H210.966L188.543 402.853C187.025 402.794 185.723 401.719 185.372 400.241L184.798 397.806C184.534 396.697 184.823 395.578 185.591 394.737C185.77 394.54 185.972 394.371 186.187 394.225C186.246 394.185 186.312 394.156 186.37 394.119C186.531 394.024 186.696 393.936 186.871 393.867C186.944 393.837 187.025 393.815 187.098 393.793C187.266 393.742 187.438 393.702 187.614 393.676C187.698 393.665 187.786 393.654 187.873 393.651C188.104 393.636 188.338 393.633 188.572 393.665C189.102 393.739 189.666 393.819 190.225 393.9C196.384 394.77 203.893 395.86 209.946 396.745L211.599 396.986C212.674 397.144 213.585 397.784 214.097 398.742C214.609 399.704 214.638 400.819 214.17 401.803V401.8ZM263.578 391.27C264.021 396.068 263.362 399.477 261.717 400.874C260.528 401.884 258.838 401.767 258.103 401.657L222.952 379.617C229.195 379.511 235.87 379.292 241.323 378.846H241.334C242.19 378.78 262.302 377.489 263.574 391.27H263.578ZM250.02 356.484C249.131 356.594 248.524 356.203 248.232 355.958C248.107 355.852 247.943 355.676 247.796 355.453C247.65 354.29 247.5 353.108 247.314 351.883L247.292 351.733C246.747 343.617 244.768 331.457 238.967 315.66C238.609 314.424 238.24 313.199 237.87 311.977C237.965 311.176 238.47 310.441 239.26 310.112L250.104 305.606C252.942 314.274 261.365 340.56 263.454 353.288C263.534 353.785 263.666 354.239 263.798 354.685L250.024 356.488L250.02 356.484ZM316.205 345.033C315.067 346.953 313.147 348.219 310.934 348.507L287.311 351.598C287.311 350.592 287.19 349.521 286.876 348.325L272.981 296.089L289.535 289.21C291.342 288.46 293.327 288.467 295.131 289.236C296.93 290.004 298.313 291.43 299.026 293.255L316.724 338.739C317.532 340.816 317.346 343.109 316.208 345.029L316.205 345.033Z" fill="#F9B60D"/>
<path d="M206.086 377.075L210.34 371.505C197.608 361.78 198.197 352.153 198.226 351.747L191.248 351.078C191.193 351.634 190.048 364.826 206.082 377.071L206.086 377.075Z" fill="#F9B60D"/>
<path d="M63.7675 439.244C67.8492 439.829 71.9784 440.132 76.1113 440.132H76.1223C84.6879 440.132 91.7467 438.797 97.6973 436.054C105.319 432.543 111.072 426.534 113.479 419.567C115.648 413.287 114.949 406.276 111.508 399.82C107.832 392.93 101.406 387.7 94.3215 385.831C82.3033 382.653 68.3247 388.146 60.3588 398.723C58.5118 397.538 56.7856 396.156 55.275 394.532C46.2742 384.869 44.1968 368.956 50.2205 355.833C50.8935 354.37 51.6432 352.984 52.4662 351.685C55.4067 356.868 59.5359 361.345 64.6746 364.479C69.25 367.273 73.6352 368.418 77.7023 367.895C82.4057 367.288 86.4837 364.256 88.8939 359.571C91.5529 354.395 91.626 348.236 89.0768 343.496C84.5855 335.139 73.2658 331.065 63.3104 334.221C60.3918 335.147 57.6012 336.628 55.0263 338.577C53.7463 332.25 54.3241 325.582 57.1403 319.881L50.8569 316.775C46.6582 325.279 46.3546 335.267 49.2147 344.232C47.1446 346.777 45.3306 349.696 43.8566 352.907C36.6771 368.539 39.2666 387.619 50.151 399.308C52.1224 401.422 54.357 403.207 56.7417 404.729C53.2196 412.226 52.1553 421.114 53.6146 429.892C44.2736 427.174 35.419 422.793 27.6177 416.93C22.0585 412.753 19.0557 408.96 18.1633 404.985C17.6367 402.64 18.2218 399.842 19.6556 397.856C20.3468 396.898 21.5355 395.721 23.2764 395.541L22.5669 388.567C19.1874 388.91 16.1335 390.754 13.9683 393.756C11.3788 397.348 10.3657 402.238 11.324 406.514C13.0027 413.993 19.0228 419.238 23.4081 422.529C32.9758 429.716 43.9956 434.858 55.5896 437.66C56.0175 438.904 56.5003 440.132 57.0343 441.343C61.9681 452.538 71.1482 462.552 83.5834 470.299C94.7824 477.277 107.243 481.703 119.038 485.448L121.16 478.766C109.8 475.159 97.8326 470.917 87.2883 464.348C79.6041 459.561 69.3597 451.35 63.7712 439.233L63.7675 439.244ZM65.4244 340.903C72.1576 338.764 79.9991 341.419 82.8994 346.817C84.3478 349.513 84.2527 353.262 82.6544 356.37C81.3158 358.971 79.1835 360.639 76.8025 360.946C74.3484 361.257 71.4993 360.438 68.321 358.499C63.4786 355.544 59.7298 350.987 57.3451 345.753C59.7956 343.482 62.535 341.818 65.4207 340.903H65.4244ZM62.9995 407.907C67.2421 409.553 71.7553 410.423 76.232 410.423C83.4334 410.423 90.5105 408.247 96.0881 403.767L91.6955 398.303C85.0537 403.642 75.3469 404.648 66.8215 401.806C73.2146 394.144 83.6053 390.256 92.5331 392.612C97.7668 393.994 102.547 397.922 105.323 403.123C107.836 407.838 108.381 412.863 106.855 417.281C105.071 422.449 100.663 426.973 94.7677 429.691C89.7534 432.002 83.6565 433.125 76.1259 433.125H76.1186C71.0824 433.125 66.0607 432.642 61.1269 431.702C59.108 423.444 59.759 414.922 63.0031 407.911L62.9995 407.907Z" fill="#F9B60D"/>
</g>
<defs>
<filter id="filter0_d_586_3420" x="0.00156212" y="-0.000391006" width="360.2" height="481.2" filterUnits="userSpaceOnUse" color-interpolation-filters="sRGB">
<feFlood flood-opacity="0" result="BackgroundImageFix"/>
<feColorMatrix in="SourceAlpha" type="matrix" values="0 0 0 0 0 0 0 0 0 0 0 0 0 0 0 0 0 0 127 0" result="hardAlpha"/>
<feOffset dy="4"/>
<feGaussianBlur stdDeviation="9.55"/>
<feComposite in2="hardAlpha" operator="out"/>
<feColorMatrix type="matrix" values="0 0 0 0 0 0 0 0 0 0 0 0 0 0 0 0 0 0 0.25 0"/>
<feBlend mode="normal" in2="BackgroundImageFix" result="effect1_dropShadow_586_3420"/>
<feBlend mode="normal" in="SourceGraphic" in2="effect1_dropShadow_586_3420" result="shape"/>
</filter>
<clipPath id="clip0_586_3420">
<rect width="322" height="443" fill="white" transform="translate(19.1016 15.0996)"/>
</clipPath>
</defs>
</svg>
